<svg width="300.000000" height="300.000000" viewBox="0 0 300 300" fill="none" xmlns="http://www.w3.org/2000/svg" xmlns:xlink="http://www.w3.org/1999/xlink">
	<g clip-path="url(#clip2_30)">
		<path id="合并" d="M205.853 245.37C203.507 246.235 200.944 246.675 198.257 246.605L70.3005 243.271C59.1043 242.979 50.5365 233.953 50.8283 222.756C51.1201 211.56 60.1464 202.992 71.3425 203.284L186.93 206.296L204.62 140.375L169.14 139.291C157.945 138.949 149.418 129.885 149.76 118.69C150.102 107.495 159.166 98.9679 170.361 99.3098L229.546 101.118C231.009 101.061 232.502 101.163 234.003 101.438C243.802 103.055 250.926 111.52 250.613 121.771C250.535 124.302 250.012 126.696 249.119 128.883L221.773 230.789C219.652 238.692 213.326 244.14 205.853 245.37Z" clip-rule="evenodd" fill="#ea580c" fill-opacity="1.000000" fill-rule="evenodd"/>
		<path id="合并" d="M106.244 38.6692C108.59 37.8051 111.151 37.3651 113.838 37.4351L241.794 40.7695C252.991 41.0612 261.558 50.0875 261.267 61.2837C260.975 72.4799 251.949 81.0477 240.752 80.7559L125.164 77.7438L107.474 143.665L142.956 144.749C154.151 145.091 162.678 154.156 162.336 165.35C161.994 176.545 152.929 185.072 141.734 184.73L82.545 182.922C81.0836 182.979 79.5926 182.876 78.093 182.602C68.2938 180.986 61.1697 172.521 61.4829 162.269C61.5601 159.742 62.0818 157.351 62.9722 155.167L90.3214 53.2512C92.4425 45.3469 98.7696 39.8981 106.244 38.6692Z" clip-rule="evenodd" fill="#ea580c" fill-opacity="1.000000" fill-rule="evenodd"/>
	</g>
</svg>
